<svg width="14" height="15" viewBox="0 0 14 15" fill="none" xmlns="http://www.w3.org/2000/svg">
<path d="M5.46467 7.96334L1.95067 7.35667C1.6695 7.2782 1.42039 7.11276 1.239 6.88405C1.05762 6.65533 0.953273 6.37508 0.940915 6.08343C0.928556 5.79179 1.00882 5.50371 1.1702 5.26047C1.33159 5.01723 1.56582 4.83131 1.83933 4.72934L11.2027 1.41734C11.4502 1.32716 11.7183 1.30951 11.9754 1.36648C12.2326 1.42344 12.4682 1.55265 12.6544 1.73891C12.8407 1.92517 12.9699 2.16073 13.0269 2.41791C13.0838 2.67508 13.0662 2.94318 12.976 3.19067L9.664 12.736C9.56593 13.0193 9.37849 13.263 9.1299 13.4306C8.88131 13.5981 8.58503 13.6804 8.28565 13.665C7.98627 13.6495 7.69999 13.5373 7.46993 13.3451C7.23986 13.1529 7.07845 12.8912 7.01 12.5993L6.40333 8.902C6.33785 8.67953 6.21761 8.47703 6.05362 8.31305C5.88964 8.14906 5.68714 8.02882 5.46467 7.96334Z" stroke="white" stroke-linecap="round" stroke-linejoin="round"/>
</svg>
