<svg id="Layer_1" height="512" viewBox="0 0 512 512" width="512" xmlns="http://www.w3.org/2000/svg" data-name="Layer 1"><g fill-rule="evenodd"><path d="m149.73 488.957v-139.528h344.68c-37.327 95.177-129.997 162.571-238.41 162.571a255.038 255.038 0 0 1 -106.27-23.043z" fill="#282828"/><path d="m149.73 23.043v465.914c-88.34-40.364-149.73-129.487-149.73-232.957s61.39-192.593 149.73-232.957z" fill="#f00"/><path d="m495.922 166.546h-346.192v-143.503a255.038 255.038 0 0 1 106.27-23.043c109.915 0 203.639 69.278 239.922 166.546z" fill="#00732f"/><path d="m149.73 166.546h346.192a256.9 256.9 0 0 1 -1.512 182.883h-344.68z" fill="#f5f5f5"/></g></svg>