<svg width="18" height="18" viewBox="0 0 18 18" fill="none" xmlns="http://www.w3.org/2000/svg">
<path d="M8.96906 5.99244C7.42734 5.99244 6.16917 7.2506 6.16917 8.79233C6.16917 10.3341 7.42734 11.5922 8.96906 11.5922C10.5108 11.5922 11.7689 10.3341 11.7689 8.79233C11.7689 7.2506 10.5108 5.99244 8.96906 5.99244ZM17.3666 8.79233C17.3666 7.63288 17.3771 6.48394 17.312 5.3266C17.2469 3.98232 16.9402 2.78927 15.9572 1.80626C14.9721 0.821154 13.7812 0.51659 12.4369 0.451476C11.2774 0.386363 10.1285 0.396865 8.97116 0.396865C7.81172 0.396865 6.66278 0.386363 5.50543 0.451476C4.16115 0.51659 2.9681 0.823254 1.98509 1.80626C0.999987 2.79137 0.695423 3.98232 0.630309 5.3266C0.565196 6.48604 0.575698 7.63498 0.575698 8.79233C0.575698 9.94967 0.565196 11.1007 0.630309 12.2581C0.695423 13.6023 1.00209 14.7954 1.98509 15.7784C2.9702 16.7635 4.16115 17.0681 5.50543 17.1332C6.66488 17.1983 7.81382 17.1878 8.97116 17.1878C10.1306 17.1878 11.2795 17.1983 12.4369 17.1332C13.7812 17.0681 14.9742 16.7614 15.9572 15.7784C16.9423 14.7933 17.2469 13.6023 17.312 12.2581C17.3792 11.1007 17.3666 9.95177 17.3666 8.79233ZM8.96906 13.1003C6.58506 13.1003 4.66106 11.1763 4.66106 8.79233C4.66106 6.40833 6.58506 4.48432 8.96906 4.48432C11.3531 4.48432 13.2771 6.40833 13.2771 8.79233C13.2771 11.1763 11.3531 13.1003 8.96906 13.1003ZM13.4535 5.314C12.8969 5.314 12.4474 4.8645 12.4474 4.30789C12.4474 3.75127 12.8969 3.30177 13.4535 3.30177C14.0101 3.30177 14.4596 3.75127 14.4596 4.30789C14.4598 4.44006 14.4339 4.57096 14.3834 4.6931C14.3329 4.81525 14.2588 4.92623 14.1653 5.01968C14.0718 5.11314 13.9609 5.18725 13.8387 5.23775C13.7166 5.28825 13.5857 5.31416 13.4535 5.314Z" fill="url(#paint0_linear_2340_2066)"/>
<defs>
<linearGradient id="paint0_linear_2340_2066" x1="16.9999" y1="-0.000243812" x2="0.999878" y2="16.9998" gradientUnits="userSpaceOnUse">
<stop stop-color="#833AB4"/>
<stop offset="0.3" stop-color="#E1306C"/>
<stop offset="0.67" stop-color="#FD1D1D"/>
<stop offset="1" stop-color="#FCAF45"/>
</linearGradient>
</defs>
</svg>
