<svg width="19" height="17" viewBox="0 0 19 17" fill="none" xmlns="http://www.w3.org/2000/svg">
<path d="M4.38173 2.21127C4.38149 2.69234 4.19015 3.15362 3.84981 3.49361C3.50948 3.83361 3.04801 4.02449 2.56694 4.02425C2.08587 4.02401 1.6246 3.83267 1.2846 3.49233C0.944601 3.15199 0.753727 2.69053 0.753968 2.20946C0.754208 1.72839 0.945543 1.26711 1.28588 0.927116C1.62622 0.587118 2.08768 0.396244 2.56875 0.396485C3.04983 0.396725 3.5111 0.58806 3.8511 0.928399C4.1911 1.26874 4.38197 1.7302 4.38173 2.21127ZM4.43615 5.36742H0.808384V16.7223H4.43615V5.36742ZM10.168 5.36742H6.55839V16.7223H10.1317V10.7637C10.1317 7.44432 14.4578 7.13596 14.4578 10.7637V16.7223H18.0402V9.53028C18.0402 3.93446 11.6372 4.14305 10.1317 6.89108L10.168 5.36742Z" fill="#0A66C2"/>
</svg>
