<svg width="17" height="19" viewBox="0 0 17 19" fill="none" xmlns="http://www.w3.org/2000/svg">
<path d="M13.4813 3.24079C12.792 2.45352 12.412 1.44267 12.4121 0.39624H9.29522V12.9042C9.27168 13.5812 8.98607 14.2227 8.49865 14.6931C8.01123 15.1636 7.36011 15.4264 6.68267 15.426C5.25031 15.426 4.06003 14.2559 4.06003 12.8033C4.06003 11.0684 5.73449 9.76712 7.45937 10.3017V7.11422C3.97934 6.65022 0.933044 9.35355 0.933044 12.8033C0.933044 16.1623 3.71707 18.5529 6.67258 18.5529C9.83992 18.5529 12.4121 15.9808 12.4121 12.8033V6.45856C13.676 7.36625 15.1935 7.85325 16.7496 7.85058V4.73368C16.7496 4.73368 14.8532 4.82446 13.4813 3.24079Z" fill="black"/>
</svg>
