<svg width="69" height="69" viewBox="0 0 69 69" fill="none" xmlns="http://www.w3.org/2000/svg">
<g clip-path="url(#clip0_2340_1991)">
<path d="M27.3262 24.0651C29.0447 22.6083 31.2069 21.7783 33.4587 21.711L51.2416 21.1802C53.1212 21.126 54.0207 23.4693 52.5876 24.6868L39.0172 36.1913C37.2987 37.6481 35.1365 38.4781 32.8847 38.5454L19.993 38.9264C19.6938 39.3963 19.545 39.9463 19.5664 40.503C19.9104 40.587 20.2293 40.7523 20.496 40.9853C20.7628 41.2182 20.9697 41.5118 21.0992 41.8414C21.2287 42.171 21.2771 42.5269 21.2403 42.8791C21.2036 43.2314 21.0826 43.5696 20.8878 43.8653L20.9103 43.8993L25.8341 51.3315C25.9436 51.4969 26.0146 51.6847 26.0419 51.8812C26.0691 52.0776 26.052 52.2777 25.9917 52.4667C25.9313 52.6556 25.8294 52.8286 25.6933 52.9729C25.5572 53.1172 25.3905 53.2292 25.2054 53.3005L21.5936 54.6869C21.4083 54.7581 21.2093 54.7868 21.0114 54.7709C20.8135 54.7549 20.6217 54.6947 20.4502 54.5947C20.2787 54.4947 20.1319 54.3575 20.0205 54.1931C19.9091 54.0288 19.8361 53.8415 19.8068 53.6451L18.492 44.8252L18.4888 44.7862C18.1205 44.6906 17.7832 44.5015 17.5094 44.2373C17.2356 43.9731 17.0347 43.6426 16.9261 43.2779C16.8176 42.9133 16.805 42.5267 16.8897 42.1558C16.9744 41.7848 17.1534 41.442 17.4095 41.1606C17.3064 40.4379 17.3568 39.7017 17.5575 38.9998L15.101 39.0742C13.2193 39.1291 12.3198 36.7859 13.755 35.5676L27.3262 24.0651Z" fill="#0C4DA2"/>
<path d="M23.8458 40.4057L25.2624 46.143C25.5028 47.1205 26.2529 47.9402 27.282 48.1983C30.3139 48.9633 35 49.543 39.9031 47.6609C43.9843 46.1087 47.4412 43.2565 49.7402 39.5443C50.2714 38.6777 50.2413 37.6314 49.7975 36.7959L46.9784 31.5236L39.6197 37.761C37.9013 39.2178 35.7391 40.0478 33.4873 40.1151L23.8458 40.4057Z" fill="#0C4DA2"/>
</g>
<defs>
<clipPath id="clip0_2340_1991">
<rect width="53.0273" height="53.0273" fill="white" transform="translate(0.5 19.0031) rotate(-21)"/>
</clipPath>
</defs>
</svg>
