<svg width="25" height="24" viewBox="0 0 25 24" fill="none" xmlns="http://www.w3.org/2000/svg">
<path d="M6.07681 5.7594L6.7029 8.4199L6.07681 11.0688L8.40725 12.5032L9.83333 14.8282L12.5 14.2036L15.1667 14.8282L16.5928 12.5032L18.9232 11.0688L18.2971 8.4199L18.9232 5.7594L16.6043 4.32504L15.1667 2L12.5 2.63621L9.84493 2.01157L8.39565 4.32504L6.07681 5.7594ZM12.5116 13.0931C11.2816 13.0931 10.102 12.6056 9.23226 11.7379C8.36252 10.8702 7.87391 9.69331 7.87391 8.46617C7.87391 7.23902 8.36252 6.06214 9.23226 5.19442C10.102 4.32669 11.2816 3.83921 12.5116 3.83921C15.0623 3.83921 17.1377 5.90977 17.1377 8.4546C17.1377 11.0226 15.0623 13.0931 12.5116 13.0931ZM12.4884 11.9364C10.5638 11.9364 9.02174 10.3863 9.02174 8.46617C9.02174 6.55755 10.5638 4.99595 12.4884 4.99595C14.413 4.99595 15.9783 6.55755 15.9783 8.46617C15.9783 10.3863 14.413 11.9364 12.4884 11.9364ZM16.9406 13.2088L15.4565 15.7999L13.0449 15.2562L15.9783 22L17.6014 19.4552H20.5L16.9406 13.2088ZM8.01304 13.2898L9.46232 15.8924L11.9319 15.3025L9.02174 22L7.39855 19.4552H4.5L8.01304 13.2898Z" fill="#0C4DA2"/>
</svg>
