<svg width="25" height="24" viewBox="0 0 25 24" fill="none" xmlns="http://www.w3.org/2000/svg">
<mask id="mask0_2120_925" style="mask-type:luminance" maskUnits="userSpaceOnUse" x="2" y="2" width="21" height="20">
<path d="M2.5 2H22.5V22H2.5V2Z" fill="white"/>
<path fill-rule="evenodd" clip-rule="evenodd" d="M9.19615 18.0662L12.5 16.5923L15.8038 18.0654C15.9273 18.1205 16.0631 18.1421 16.1975 18.128C16.3319 18.1139 16.4603 18.0647 16.5696 17.9852C16.679 17.9057 16.7655 17.7988 16.8204 17.6753C16.8752 17.5518 16.8966 17.416 16.8823 17.2815L16.5023 13.6839L18.9238 10.9969C19.0141 10.8966 19.0764 10.7743 19.1045 10.6422C19.1325 10.5102 19.1254 10.3731 19.0837 10.2447C19.042 10.1163 18.9672 10.0012 18.8669 9.91084C18.7666 9.82049 18.6443 9.75813 18.5123 9.73001L14.9738 8.97924L13.1654 5.84616C13.0979 5.72923 13.0008 5.63213 12.8838 5.56463C12.7669 5.49712 12.6342 5.46158 12.4992 5.46158C12.3642 5.46158 12.2316 5.49712 12.1146 5.56463C11.9977 5.63213 11.9006 5.72923 11.8331 5.84616L10.0254 8.98001L6.48692 9.73078C6.35489 9.75889 6.23259 9.82126 6.1323 9.91161C6.03201 10.002 5.95726 10.1171 5.91556 10.2455C5.87386 10.3739 5.86667 10.511 5.89472 10.643C5.92278 10.775 5.98508 10.8974 6.07538 10.9977L8.49692 13.6854L8.11692 17.2823C8.10276 17.4167 8.12423 17.5524 8.17919 17.6758C8.23414 17.7992 8.32063 17.906 8.42995 17.9854C8.53927 18.0648 8.66757 18.1139 8.80194 18.128C8.93631 18.142 9.072 18.1204 9.19538 18.0654M12.1861 15.0469L9.78692 16.1162L10.0631 13.5046C10.0743 13.3973 10.0629 13.2889 10.0295 13.1863C9.99607 13.0837 9.94148 12.9893 9.86922 12.9092L8.11076 10.9577L10.68 10.4131C10.7857 10.3909 10.8855 10.3466 10.973 10.2833C11.0605 10.2199 11.1336 10.1389 11.1877 10.0454L12.5 7.77078L13.8123 10.0462C13.8663 10.1396 13.9393 10.2206 14.0267 10.2839C14.114 10.3473 14.2137 10.3915 14.3192 10.4139L16.8885 10.9585L15.13 12.91C15.0577 12.9901 15.0031 13.0845 14.9697 13.1871C14.9364 13.2897 14.9249 13.3981 14.9361 13.5054L15.2123 16.1177L12.8131 15.0485C12.7145 15.0046 12.6079 14.9819 12.5 14.9819C12.3921 14.9819 12.2855 15.0046 12.1869 15.0485" fill="black"/>
</mask>
<g mask="url(#mask0_2120_925)">
<path d="M12.5 22C18.0228 22 22.5 17.5228 22.5 12C22.5 6.47715 18.0228 2 12.5 2C6.97715 2 2.5 6.47715 2.5 12C2.5 17.5228 6.97715 22 12.5 22Z" fill="#0C4DA2"/>
</g>
</svg>
