<svg width="24" height="24" viewBox="0 0 24 24" fill="none" xmlns="http://www.w3.org/2000/svg">
<path fill-rule="evenodd" clip-rule="evenodd" d="M12.6867 3.40107C12.3525 3.14113 11.9412 3 11.5179 3C11.0945 3 10.6832 3.14113 10.3491 3.40107L2.36939 9.60665C1.65365 10.1653 2.04769 11.3122 2.95473 11.3122H3.99407L4.77453 19.1159C4.8215 19.5856 5.04132 20.0211 5.39131 20.3378C5.74131 20.6546 6.19652 20.83 6.66857 20.83H16.3672C16.8392 20.83 17.2944 20.6546 17.6444 20.3378C17.9944 20.0211 18.2142 19.5856 18.2612 19.1159L19.0417 11.3122H20.081C20.9871 11.3122 21.383 10.1653 20.6664 9.6076L12.6867 3.40107ZM11.5179 16.0711C12.2752 16.0711 13.0014 15.7703 13.5369 15.2348C14.0724 14.6993 14.3732 13.9731 14.3732 13.2158C14.3732 12.4585 14.0724 11.7322 13.5369 11.1968C13.0014 10.6613 12.2752 10.3605 11.5179 10.3605C10.7606 10.3605 10.0343 10.6613 9.49885 11.1968C8.96337 11.7322 8.66254 12.4585 8.66254 13.2158C8.66254 13.9731 8.96337 14.6993 9.49885 15.2348C10.0343 15.7703 10.7606 16.0711 11.5179 16.0711Z" fill="#0C4DA2"/>
</svg>
