<svg width="25" height="24" viewBox="0 0 25 24" fill="none" xmlns="http://www.w3.org/2000/svg">
<path d="M12.5 2C6.986 2 2.5 6.486 2.5 12C2.5 17.514 6.986 22 12.5 22C18.014 22 22.5 17.514 22.5 12C22.5 6.486 18.014 2 12.5 2ZM12.5 6.1C12.7571 6.1 13.0085 6.17624 13.2222 6.31909C13.436 6.46194 13.6026 6.66497 13.701 6.90251C13.7994 7.14006 13.8252 7.40144 13.775 7.65362C13.7249 7.90579 13.601 8.13743 13.4192 8.31924C13.2374 8.50105 13.0058 8.62486 12.7536 8.67502C12.5014 8.72518 12.2401 8.69944 12.0025 8.60104C11.765 8.50265 11.5619 8.33603 11.4191 8.12224C11.2762 7.90846 11.2 7.65712 11.2 7.4C11.2 7.05522 11.337 6.72456 11.5808 6.48076C11.8246 6.23696 12.1552 6.1 12.5 6.1ZM14.9 17.4H10.5C10.2878 17.4 10.0843 17.3157 9.93431 17.1657C9.78429 17.0157 9.7 16.8122 9.7 16.6C9.7 16.3878 9.78429 16.1843 9.93431 16.0343C10.0843 15.8843 10.2878 15.8 10.5 15.8H11.9V11.4H11.1C10.8878 11.4 10.6843 11.3157 10.5343 11.1657C10.3843 11.0157 10.3 10.8122 10.3 10.6C10.3 10.3878 10.3843 10.1843 10.5343 10.0343C10.6843 9.88429 10.8878 9.8 11.1 9.8H12.7C12.9122 9.8 13.1157 9.88429 13.2657 10.0343C13.4157 10.1843 13.5 10.3878 13.5 10.6V15.8H14.9C15.1122 15.8 15.3157 15.8843 15.4657 16.0343C15.6157 16.1843 15.7 16.3878 15.7 16.6C15.7 16.8122 15.6157 17.0157 15.4657 17.1657C15.3157 17.3157 15.1122 17.4 14.9 17.4Z" fill="#0C4DA2"/>
</svg>
