<svg width="25" height="24" viewBox="0 0 25 24" fill="none" xmlns="http://www.w3.org/2000/svg">
<g clip-path="url(#clip0_2120_939)">
<path d="M7.29452 11.6667C8.41005 11.6667 9.4799 11.2101 10.2687 10.3975C11.0575 9.5848 11.5006 8.4826 11.5006 7.33333C11.5006 6.18406 11.0575 5.08186 10.2687 4.2692C9.4799 3.45655 8.41005 3 7.29452 3C6.17898 3 5.10914 3.45655 4.32033 4.2692C3.53153 5.08186 3.08839 6.18406 3.08839 7.33333C3.08839 8.4826 3.53153 9.5848 4.32033 10.3975C5.10914 11.2101 6.17898 11.6667 7.29452 11.6667ZM14.6546 18.5267C15.3405 18.816 16.2128 19 17.3232 19C22.5 19 22.5 15 22.5 15C22.5 14.4698 22.2957 13.9613 21.9319 13.5863C21.5681 13.2112 21.0746 13.0004 20.56 13H14.5705C15.0791 13.6347 15.3845 14.4467 15.3845 15.3333V15.808C15.3818 15.9203 15.3744 16.0324 15.3625 16.144C15.2744 16.9769 15.0334 17.7852 14.6546 18.5267ZM20.56 8.33333C20.56 9.21739 20.2191 10.0652 19.6124 10.6904C19.0056 11.3155 18.1826 11.6667 17.3245 11.6667C16.4664 11.6667 15.6435 11.3155 15.0367 10.6904C14.4299 10.0652 14.089 9.21739 14.089 8.33333C14.089 7.44928 14.4299 6.60143 15.0367 5.97631C15.6435 5.35119 16.4664 5 17.3245 5C18.1826 5 19.0056 5.35119 19.6124 5.97631C20.2191 6.60143 20.56 7.44928 20.56 8.33333ZM0.5 15.6667C0.5 14.9594 0.772704 14.2811 1.25812 13.781C1.74354 13.281 2.4019 13 3.08839 13H11.5006C12.1871 13 12.8455 13.281 13.3309 13.781C13.8163 14.2811 14.089 14.9594 14.089 15.6667C14.089 15.6667 14.089 21 7.29452 21C0.5 21 0.5 15.6667 0.5 15.6667Z" fill="#0C4DA2"/>
</g>
<defs>
<clipPath id="clip0_2120_939">
<rect width="24" height="24" fill="white" transform="translate(0.5)"/>
</clipPath>
</defs>
</svg>
