<svg width="65" height="64" viewBox="0 0 65 64" fill="none" xmlns="http://www.w3.org/2000/svg">
<g filter="url(#filter0_d_2340_2111)">
<path d="M27.3582 40.1599L40.9908 32.2798L27.3582 24.3996V40.1599ZM57.7229 19.5928C58.0644 20.8273 58.3008 22.4822 58.4584 24.5835C58.6423 26.6849 58.7211 28.4973 58.7211 30.0733L58.8787 32.2798C58.8787 38.0323 58.4584 42.2613 57.7229 44.9668C57.0662 47.3308 55.5428 48.8543 53.1787 49.511C51.9442 49.8524 49.6852 50.0888 46.218 50.2464C42.8032 50.4303 39.6775 50.5091 36.7881 50.5091L32.6116 50.6667C21.6057 50.6667 14.75 50.2464 12.0445 49.511C9.68046 48.8543 8.15697 47.3308 7.50029 44.9668C7.15882 43.7322 6.92242 42.0774 6.76482 39.976C6.58095 37.8747 6.50215 36.0622 6.50215 34.4862L6.34454 32.2798C6.34454 26.5273 6.76482 22.2983 7.50029 19.5928C8.15697 17.2287 9.68046 15.7053 12.0445 15.0486C13.279 14.7071 15.538 14.4707 19.0053 14.3131C22.42 14.1292 25.5458 14.0504 28.4351 14.0504L32.6116 13.8928C43.6175 13.8928 50.4732 14.3131 53.1787 15.0486C55.5428 15.7053 57.0662 17.2287 57.7229 19.5928Z" fill="white"/>
</g>
<defs>
<filter id="filter0_d_2340_2111" x="-7.06843" y="0.479853" width="79.3601" height="63.5999" filterUnits="userSpaceOnUse" color-interpolation-filters="sRGB">
<feFlood flood-opacity="0" result="BackgroundImageFix"/>
<feColorMatrix in="SourceAlpha" type="matrix" values="0 0 0 0 0 0 0 0 0 0 0 0 0 0 0 0 0 0 127 0" result="hardAlpha"/>
<feOffset/>
<feGaussianBlur stdDeviation="6.70648"/>
<feComposite in2="hardAlpha" operator="out"/>
<feColorMatrix type="matrix" values="0 0 0 0 0 0 0 0 0 0 0 0 0 0 0 0 0 0 0.25 0"/>
<feBlend mode="normal" in2="BackgroundImageFix" result="effect1_dropShadow_2340_2111"/>
<feBlend mode="normal" in="SourceGraphic" in2="effect1_dropShadow_2340_2111" result="shape"/>
</filter>
</defs>
</svg>
